<svg xmlns="http://www.w3.org/2000/svg" width="1480" height="1480"><rect width="1480" height="1480" x="0" y="0" fill="#FFFFFF" id="backgorund"/><g transform="translate(10,10)" id="visualization"><g><rect x="1455" y="25" height="5.21153846153846" width="5" fill="black"><title>credential-access: 1</title></rect><rect x="1455" y="35.21153846153846" height="10.423076923076906" width="5" fill="black"><title>initial-access: 2</title></rect><rect x="0" y="2.2737367544323206e-13" height="10.423076923076906" width="5" fill="black"><title>hardrain: 2</title></rect><rect x="1455" y="50.634615384615365" height="10.423076923076906" width="5" fill="black"><title>lateral-movement: 2</title></rect><rect x="0" y="15.423076923077133" height="20.84615384615381" width="5" fill="black"><title>eccentricbandwagon: 4</title></rect><rect x="0" y="41.269230769230944" height="26.057692307692264" width="5" fill="black"><title>badcall: 5</title></rect><rect x="1455" y="66.05769230769226" height="26.057692307692378" width="5" fill="black"><title>impact: 5</title></rect><rect x="0" y="72.32692307692321" height="31.269230769230717" width="5" fill="black"><title>fallchill: 6</title></rect><rect x="0" y="108.59615384615392" height="36.480769230769226" width="5" fill="black"><title>cryptoistic: 7</title></rect><rect x="0" y="150.07692307692315" height="36.48076923076928" width="5" fill="black"><title>dacls: 7</title></rect><rect x="1455" y="97.11538461538464" height="36.48076923076917" width="5" fill="black"><title>exfiltration: 7</title></rect><rect x="0" y="191.55769230769243" height="41.692307692307736" width="5" fill="black"><title>keymarble: 8</title></rect><rect x="0" y="238.25000000000017" height="52.11538461538453" width="5" fill="black"><title>torisma: 10</title></rect><rect x="0" y="295.3653846153847" height="52.11538461538453" width="5" fill="black"><title>auditcred: 10</title></rect><rect x="0" y="352.4807692307692" height="57.326923076923094" width="5" fill="black"><title>proxysvc: 11</title></rect><rect x="0" y="414.8076923076923" height="62.53846153846155" width="5" fill="black"><title>taintedscribe: 12</title></rect><rect x="0" y="482.34615384615387" height="62.53846153846138" width="5" fill="black"><title>wannacry: 12</title></rect><rect x="0" y="549.8846153846152" height="62.53846153846143" width="5" fill="black"><title>typeframe: 12</title></rect><rect x="0" y="617.4230769230767" height="67.75" width="5" fill="black"><title>threatneedle: 13</title></rect><rect x="0" y="690.1730769230767" height="72.96153846153845" width="5" fill="black"><title>hoplight: 14</title></rect><rect x="0" y="768.1346153846151" height="72.96153846153845" width="5" fill="black"><title>ratankba: 14</title></rect><rect x="1455" y="138.5961538461538" height="78.1730769230769" width="5" fill="black"><title>collection: 15</title></rect><rect x="0" y="846.0961538461536" height="78.1730769230769" width="5" fill="black"><title>blindingcan: 15</title></rect><rect x="0" y="929.2692307692305" height="78.1730769230769" width="5" fill="black"><title>volgmer: 15</title></rect><rect x="1455" y="221.76923076923072" height="88.59615384615381" width="5" fill="black"><title>execution: 17</title></rect><rect x="0" y="1012.4423076923074" height="93.80769230769238" width="5" fill="black"><title>applejeus: 18</title></rect><rect x="1455" y="315.3653846153845" height="93.80769230769238" width="5" fill="black"><title>persistence: 18</title></rect><rect x="0" y="1111.2499999999998" height="99.01923076923072" width="5" fill="black"><title>bankshot: 19</title></rect><rect x="0" y="1215.2692307692305" height="99.01923076923072" width="5" fill="black"><title>hotcroissant: 19</title></rect><rect x="1455" y="414.1730769230769" height="114.65384615384619" width="5" fill="black"><title>privilege-escalation: 22</title></rect><rect x="0" y="1319.2884615384612" height="140.71153846153834" width="5" fill="black"><title>dtrack: 27</title></rect><rect x="1455" y="533.8269230769231" height="145.9230769230769" width="5" fill="black"><title>command-and-control: 28</title></rect><rect x="1455" y="684.75" height="317.9038461538462" width="5" fill="black"><title>defense-evasion: 61</title></rect><rect x="1455" y="1007.6538461538462" height="427.3461538461538" width="5" fill="black"><title>discovery: 82</title></rect></g><g fill="none" stroke-opacity="1"><g style="mix-blend-mode: multiply;"><path d="M5,692.778846153846C730,692.778846153846,730,27.60576923076923,1455,27.60576923076923" stroke="#cccccc" stroke-width="5.211538461538462"/><title>hoplight → credential-access: 1</title></g><g style="mix-blend-mode: multiply;"><path d="M5,1121.673076923077C730,1121.673076923077,730,190.7115384615384,1455,190.7115384615384" stroke="#d62728" stroke-width="10.423076923076923"/><title>bankshot → collection: 2</title></g><g style="mix-blend-mode: multiply;"><path d="M5,853.9134615384613C730,853.9134615384613,730,182.89423076923072,1455,182.89423076923072" stroke="#9467bd" stroke-width="5.211538461538462"/><title>blindingcan → collection: 1</title></g><g style="mix-blend-mode: multiply;"><path d="M5,111.20192307692315C730,111.20192307692315,730,151.62499999999997,1455,151.62499999999997" stroke="#8c564b" stroke-width="5.211538461538462"/><title>cryptoistic → collection: 1</title></g><g style="mix-blend-mode: multiply;"><path d="M5,1332.3173076923074C730,1332.3173076923074,730,208.951923076923,1455,208.951923076923" stroke="#7f7f7f" stroke-width="15.634615384615385"/><title>dtrack → collection: 3</title></g><g style="mix-blend-mode: multiply;"><path d="M5,368.1153846153846C730,368.1153846153846,730,164.6538461538461,1455,164.6538461538461" stroke="#cccccc" stroke-width="10.423076923076923"/><title>proxysvc → collection: 2</title></g><g style="mix-blend-mode: multiply;"><path d="M5,620.028846153846C730,620.028846153846,730,177.68269230769226,1455,177.68269230769226" stroke="#cccccc" stroke-width="5.211538461538462"/><title>threatneedle → collection: 1</title></g><g style="mix-blend-mode: multiply;"><path d="M5,1293.442307692308C730,1293.442307692308,730,1377.6730769230771,1455,1377.6730769230771" stroke="#cccccc" stroke-width="41.69230769230769"/><title>hotcroissant → discovery: 8</title></g><g style="mix-blend-mode: multiply;"><path d="M5,817.6442307692305C730,817.6442307692305,730,1244.7788461538462,1455,1244.7788461538462" stroke="#cccccc" stroke-width="46.90384615384615"/><title>ratankba → discovery: 9</title></g><g style="mix-blend-mode: multiply;"><path d="M5,989.2019230769228C730,989.2019230769228,730,1302.1057692307693,1455,1302.1057692307693" stroke="#cccccc" stroke-width="36.48076923076923"/><title>volgmer → discovery: 7</title></g><g style="mix-blend-mode: multiply;"><path d="M5,721.4423076923074C730,721.4423076923074,730,632.8461538461537,1455,632.8461538461537" stroke="#cccccc" stroke-width="20.846153846153847"/><title>hoplight → command-and-control: 4</title></g><g style="mix-blend-mode: multiply;"><path d="M5,435.65384615384613C730,435.65384615384613,730,596.3653846153845,1455,596.3653846153845" stroke="#cccccc" stroke-width="10.423076923076923"/><title>taintedscribe → command-and-control: 2</title></g><g style="mix-blend-mode: multiply;"><path d="M5,1194.6346153846155C730,1194.6346153846155,730,1341.192307692308,1455,1341.192307692308" stroke="#d62728" stroke-width="31.26923076923077"/><title>bankshot → discovery: 6</title></g><g style="mix-blend-mode: multiply;"><path d="M5,1441.7596153846152C730,1441.7596153846152,730,1416.7596153846155,1455,1416.7596153846155" stroke="#7f7f7f" stroke-width="36.48076923076923"/><title>dtrack → discovery: 7</title></g><g style="mix-blend-mode: multiply;"><path d="M5,752.7115384615381C730,752.7115384615381,730,1210.9038461538462,1455,1210.9038461538462" stroke="#cccccc" stroke-width="20.846153846153847"/><title>hoplight → discovery: 4</title></g><g style="mix-blend-mode: multiply;"><path d="M5,394.17307692307685C730,394.17307692307685,730,1117.096153846154,1455,1117.096153846154" stroke="#cccccc" stroke-width="31.26923076923077"/><title>proxysvc → discovery: 6</title></g><g style="mix-blend-mode: multiply;"><path d="M5,62.115384615384784C730,62.115384615384784,730,1012.8653846153846,1455,1012.8653846153846" stroke="#2ca02c" stroke-width="10.423076923076923"/><title>badcall → discovery: 2</title></g><g style="mix-blend-mode: multiply;"><path d="M5,916.4519230769229C730,916.4519230769229,730,1276.048076923077,1455,1276.048076923077" stroke="#9467bd" stroke-width="15.634615384615385"/><title>blindingcan → discovery: 3</title></g><g style="mix-blend-mode: multiply;"><path d="M5,95.7788461538463C730,95.7788461538463,730,1025.8942307692307,1455,1025.8942307692307" stroke="#17becf" stroke-width="15.634615384615385"/><title>fallchill → discovery: 3</title></g><g style="mix-blend-mode: multiply;"><path d="M5,222.8269230769232C730,222.8269230769232,730,1064.9807692307693,1455,1064.9807692307693" stroke="#cccccc" stroke-width="20.846153846153847"/><title>keymarble → discovery: 4</title></g><g style="mix-blend-mode: multiply;"><path d="M5,279.94230769230785C730,279.94230769230785,730,1085.826923076923,1455,1085.826923076923" stroke="#cccccc" stroke-width="20.846153846153847"/><title>torisma → discovery: 4</title></g><g style="mix-blend-mode: multiply;"><path d="M5,534.4615384615385C730,534.4615384615385,730,1169.2115384615386,1455,1169.2115384615386" stroke="#cccccc" stroke-width="20.846153846153847"/><title>wannacry → discovery: 4</title></g><g style="mix-blend-mode: multiply;"><path d="M5,464.3173076923076C730,464.3173076923076,730,1145.7596153846155,1455,1145.7596153846155" stroke="#cccccc" stroke-width="26.057692307692307"/><title>taintedscribe → discovery: 5</title></g><g style="mix-blend-mode: multiply;"><path d="M5,1085.403846153846C730,1085.403846153846,730,919.2692307692305,1455,919.2692307692305" stroke="#1f77b4" stroke-width="31.26923076923077"/><title>applejeus → defense-evasion: 6</title></g><g style="mix-blend-mode: multiply;"><path d="M5,331.84615384615387C730,331.84615384615387,730,762.9230769230768,1455,762.9230769230768" stroke="#ff7f0e" stroke-width="20.846153846153847"/><title>auditcred → defense-evasion: 4</title></g><g style="mix-blend-mode: multiply;"><path d="M5,890.3942307692305C730,890.3942307692305,730,864.5480769230767,1455,864.5480769230767" stroke="#9467bd" stroke-width="36.48076923076923"/><title>blindingcan → defense-evasion: 7</title></g><g style="mix-blend-mode: multiply;"><path d="M5,170.92307692307696C730,170.92307692307696,730,716.0192307692307,1455,716.0192307692307" stroke="#e377c2" stroke-width="10.423076923076923"/><title>dacls → defense-evasion: 2</title></g><g style="mix-blend-mode: multiply;"><path d="M5,31.05769230769252C730,31.05769230769252,730,689.9615384615385,1455,689.9615384615385" stroke="#bcbd22" stroke-width="10.423076923076923"/><title>eccentricbandwagon → defense-evasion: 2</title></g><g style="mix-blend-mode: multiply;"><path d="M5,1264.7788461538464C730,1264.7788461538464,730,963.5673076923074,1455,963.5673076923074" stroke="#cccccc" stroke-width="15.634615384615385"/><title>hotcroissant → defense-evasion: 3</title></g><g style="mix-blend-mode: multiply;"><path d="M5,664.3269230769228C730,664.3269230769228,730,820.2499999999998,1455,820.2499999999998" stroke="#cccccc" stroke-width="20.846153846153847"/><title>threatneedle → defense-evasion: 4</title></g><g style="mix-blend-mode: multiply;"><path d="M5,259.096153846154C730,259.096153846154,730,742.076923076923,1455,742.076923076923" stroke="#cccccc" stroke-width="20.846153846153847"/><title>torisma → defense-evasion: 4</title></g><g style="mix-blend-mode: multiply;"><path d="M5,591.5769230769229C730,591.5769230769229,730,799.403846153846,1455,799.403846153846" stroke="#cccccc" stroke-width="20.846153846153847"/><title>typeframe → defense-evasion: 4</title></g><g style="mix-blend-mode: multiply;"><path d="M5,960.5384615384612C730,960.5384615384612,730,893.2115384615382,1455,893.2115384615382" stroke="#cccccc" stroke-width="20.846153846153847"/><title>volgmer → defense-evasion: 4</title></g><g style="mix-blend-mode: multiply;"><path d="M5,1407.8846153846155C730,1407.8846153846155,730,987.0192307692304,1455,987.0192307692304" stroke="#7f7f7f" stroke-width="31.26923076923077"/><title>dtrack → defense-evasion: 6</title></g><g style="mix-blend-mode: multiply;"><path d="M5,139.86538461538467C730,139.86538461538467,730,1038.9230769230771,1455,1038.9230769230771" stroke="#8c564b" stroke-width="10.423076923076923"/><title>cryptoistic → discovery: 2</title></g><g style="mix-blend-mode: multiply;"><path d="M5,446.07692307692304C730,446.07692307692304,730,783.7692307692306,1455,783.7692307692306" stroke="#cccccc" stroke-width="10.423076923076923"/><title>taintedscribe → defense-evasion: 2</title></g><g style="mix-blend-mode: multiply;"><path d="M5,1020.2596153846151C730,1020.2596153846151,730,120.56730769230774,1455,120.56730769230774" stroke="#1f77b4" stroke-width="5.211538461538462"/><title>applejeus → exfiltration: 1</title></g><g style="mix-blend-mode: multiply;"><path d="M5,1113.855769230769C730,1113.855769230769,730,125.7788461538462,1455,125.7788461538462" stroke="#d62728" stroke-width="5.211538461538462"/><title>bankshot → exfiltration: 1</title></g><g style="mix-blend-mode: multiply;"><path d="M5,848.7019230769229C730,848.7019230769229,730,115.35576923076927,1455,115.35576923076927" stroke="#9467bd" stroke-width="5.211538461538462"/><title>blindingcan → exfiltration: 1</title></g><g style="mix-blend-mode: multiply;"><path d="M5,697.9903846153844C730,697.9903846153844,730,110.1442307692308,1455,110.1442307692308" stroke="#cccccc" stroke-width="5.211538461538462"/><title>hoplight → exfiltration: 1</title></g><g style="mix-blend-mode: multiply;"><path d="M5,1223.0865384615383C730,1223.0865384615383,730,130.99038461538467,1455,130.99038461538467" stroke="#cccccc" stroke-width="5.211538461538462"/><title>hotcroissant → exfiltration: 1</title></g><g style="mix-blend-mode: multiply;"><path d="M5,360.2980769230769C730,360.2980769230769,730,104.93269230769234,1455,104.93269230769234" stroke="#cccccc" stroke-width="5.211538461538462"/><title>proxysvc → exfiltration: 1</title></g><g style="mix-blend-mode: multiply;"><path d="M5,240.8557692307694C730,240.8557692307694,730,99.72115384615387,1455,99.72115384615387" stroke="#cccccc" stroke-width="5.211538461538462"/><title>torisma → exfiltration: 1</title></g><g style="mix-blend-mode: multiply;"><path d="M5,703.2019230769229C730,703.2019230769229,730,245.22115384615375,1455,245.22115384615375" stroke="#cccccc" stroke-width="5.211538461538462"/><title>hoplight → execution: 1</title></g><g style="mix-blend-mode: multiply;"><path d="M5,773.3461538461536C730,773.3461538461536,730,253.03846153846143,1455,253.03846153846143" stroke="#cccccc" stroke-width="10.423076923076923"/><title>ratankba → execution: 2</title></g><g style="mix-blend-mode: multiply;"><path d="M5,511.00961538461536C730,511.00961538461536,730,229.5865384615384,1455,229.5865384615384" stroke="#cccccc" stroke-width="5.211538461538462"/><title>wannacry → execution: 1</title></g><g style="mix-blend-mode: multiply;"><path d="M5,1028.0769230769229C730,1028.0769230769229,730,279.0961538461537,1455,279.0961538461537" stroke="#1f77b4" stroke-width="10.423076923076923"/><title>applejeus → execution: 2</title></g><g style="mix-blend-mode: multiply;"><path d="M5,1041.1057692307688C730,1041.1057692307688,730,370.0865384615383,1455,370.0865384615383" stroke="#1f77b4" stroke-width="15.634615384615385"/><title>applejeus → persistence: 3</title></g><g style="mix-blend-mode: multiply;"><path d="M5,1059.3461538461536C730,1059.3461538461536,730,487.13461538461524,1455,487.13461538461524" stroke="#1f77b4" stroke-width="20.846153846153847"/><title>applejeus → privilege-escalation: 4</title></g><g style="mix-blend-mode: multiply;"><path d="M5,1236.1153846153848C730,1236.1153846153848,730,299.9423076923075,1455,299.9423076923075" stroke="#cccccc" stroke-width="10.423076923076923"/><title>hotcroissant → execution: 2</title></g><g style="mix-blend-mode: multiply;"><path d="M5,1243.9326923076924C730,1243.9326923076924,730,385.72115384615364,1455,385.72115384615364" stroke="#cccccc" stroke-width="5.211538461538462"/><title>hotcroissant → persistence: 1</title></g><g style="mix-blend-mode: multiply;"><path d="M5,1249.144230769231C730,1249.144230769231,730,505.3749999999999,1455,505.3749999999999" stroke="#cccccc" stroke-width="5.211538461538462"/><title>hotcroissant → privilege-escalation: 1</title></g><g style="mix-blend-mode: multiply;"><path d="M5,305.7884615384616C730,305.7884615384616,730,429.80769230769226,1455,429.80769230769226" stroke="#ff7f0e" stroke-width="10.423076923076923"/><title>auditcred → privilege-escalation: 2</title></g><g style="mix-blend-mode: multiply;"><path d="M5,737.0769230769228C730,737.0769230769228,730,835.8846153846151,1455,835.8846153846151" stroke="#cccccc" stroke-width="10.423076923076923"/><title>hoplight → defense-evasion: 2</title></g><g style="mix-blend-mode: multiply;"><path d="M5,708.4134615384613C730,708.4134615384613,730,463.6826923076922,1455,463.6826923076922" stroke="#cccccc" stroke-width="5.211538461538462"/><title>hoplight → privilege-escalation: 1</title></g><g style="mix-blend-mode: multiply;"><path d="M5,791.5865384615382C730,791.5865384615382,730,843.7019230769229,1455,843.7019230769229" stroke="#cccccc" stroke-width="5.211538461538462"/><title>ratankba → defense-evasion: 1</title></g><g style="mix-blend-mode: multiply;"><path d="M5,781.1634615384613C730,781.1634615384613,730,468.89423076923066,1455,468.89423076923066" stroke="#cccccc" stroke-width="5.211538461538462"/><title>ratankba → privilege-escalation: 1</title></g><g style="mix-blend-mode: multiply;"><path d="M5,181.3461538461539C730,181.3461538461539,730,1049.346153846154,1455,1049.346153846154" stroke="#e377c2" stroke-width="10.423076923076923"/><title>dacls → discovery: 2</title></g><g style="mix-blend-mode: multiply;"><path d="M5,1168.576923076923C730,1168.576923076923,730,945.3269230769228,1455,945.3269230769228" stroke="#d62728" stroke-width="20.846153846153847"/><title>bankshot → defense-evasion: 4</title></g><g style="mix-blend-mode: multiply;"><path d="M5,132.048076923077C730,132.048076923077,730,708.2019230769231,1455,708.2019230769231" stroke="#8c564b" stroke-width="5.211538461538462"/><title>cryptoistic → defense-evasion: 1</title></g><g style="mix-blend-mode: multiply;"><path d="M5,85.35576923076937C730,85.35576923076937,730,702.9903846153846,1455,702.9903846153846" stroke="#17becf" stroke-width="5.211538461538462"/><title>fallchill → defense-evasion: 1</title></g><g style="mix-blend-mode: multiply;"><path d="M5,207.1923076923078C730,207.1923076923078,730,726.4423076923076,1455,726.4423076923076" stroke="#cccccc" stroke-width="10.423076923076923"/><title>keymarble → defense-evasion: 2</title></g><g style="mix-blend-mode: multiply;"><path d="M5,375.93269230769226C730,375.93269230769226,730,775.951923076923,1455,775.951923076923" stroke="#cccccc" stroke-width="5.211538461538462"/><title>proxysvc → defense-evasion: 1</title></g><g style="mix-blend-mode: multiply;"><path d="M5,20.634615384615593C730,20.634615384615593,730,143.80769230769226,1455,143.80769230769226" stroke="#bcbd22" stroke-width="10.423076923076923"/><title>eccentricbandwagon → collection: 2</title></g><g style="mix-blend-mode: multiply;"><path d="M5,1321.8942307692305C730,1321.8942307692305,730,43.02884615384615,1455,43.02884615384615" stroke="#7f7f7f" stroke-width="5.211538461538462"/><title>dtrack → initial-access: 1</title></g><g style="mix-blend-mode: multiply;"><path d="M5,1355.7692307692307C730,1355.7692307692307,730,398.7499999999998,1455,398.7499999999998" stroke="#7f7f7f" stroke-width="20.846153846153847"/><title>dtrack → persistence: 4</title></g><g style="mix-blend-mode: multiply;"><path d="M5,1376.6153846153845C730,1376.6153846153845,730,518.4038461538461,1455,518.4038461538461" stroke="#7f7f7f" stroke-width="20.846153846153847"/><title>dtrack → privilege-escalation: 4</title></g><g style="mix-blend-mode: multiply;"><path d="M5,1103.6442307692305C730,1103.6442307692305,730,1322.9519230769233,1455,1322.9519230769233" stroke="#1f77b4" stroke-width="5.211538461538462"/><title>applejeus → discovery: 1</title></g><g style="mix-blend-mode: multiply;"><path d="M5,679.9615384615381C730,679.9615384615381,730,1195.269230769231,1455,1195.269230769231" stroke="#cccccc" stroke-width="10.423076923076923"/><title>threatneedle → discovery: 2</title></g><g style="mix-blend-mode: multiply;"><path d="M5,607.2115384615382C730,607.2115384615382,730,1184.846153846154,1455,1184.846153846154" stroke="#cccccc" stroke-width="10.423076923076923"/><title>typeframe → discovery: 2</title></g><g style="mix-blend-mode: multiply;"><path d="M5,344.87500000000006C730,344.87500000000006,730,1098.8557692307693,1455,1098.8557692307693" stroke="#ff7f0e" stroke-width="5.211538461538462"/><title>auditcred → discovery: 1</title></g><g style="mix-blend-mode: multiply;"><path d="M5,316.2115384615385C730,316.2115384615385,730,585.9423076923076,1455,585.9423076923076" stroke="#ff7f0e" stroke-width="10.423076923076923"/><title>auditcred → command-and-control: 2</title></g><g style="mix-blend-mode: multiply;"><path d="M5,46.480769230769404C730,46.480769230769404,730,549.4615384615385,1455,549.4615384615385" stroke="#2ca02c" stroke-width="10.423076923076923"/><title>badcall → command-and-control: 2</title></g><g style="mix-blend-mode: multiply;"><path d="M5,5.211538461538689C730,5.211538461538689,730,539.0384615384615,1455,539.0384615384615" stroke="#cccccc" stroke-width="10.423076923076923"/><title>hardrain → command-and-control: 2</title></g><g style="mix-blend-mode: multiply;"><path d="M5,573.3365384615383C730,573.3365384615383,730,609.3942307692307,1455,609.3942307692307" stroke="#cccccc" stroke-width="15.634615384615385"/><title>typeframe → command-and-control: 3</title></g><g style="mix-blend-mode: multiply;"><path d="M5,121.62500000000009C730,121.62500000000009,730,562.4903846153846,1455,562.4903846153846" stroke="#8c564b" stroke-width="15.634615384615385"/><title>cryptoistic → command-and-control: 3</title></g><g style="mix-blend-mode: multiply;"><path d="M5,1152.9423076923078C730,1152.9423076923078,730,664.1153846153844,1455,664.1153846153844" stroke="#d62728" stroke-width="10.423076923076923"/><title>bankshot → command-and-control: 2</title></g><g style="mix-blend-mode: multiply;"><path d="M5,869.5480769230767C730,869.5480769230767,730,651.0865384615383,1455,651.0865384615383" stroke="#9467bd" stroke-width="5.211538461538462"/><title>blindingcan → command-and-control: 1</title></g><g style="mix-blend-mode: multiply;"><path d="M5,163.10576923076928C730,163.10576923076928,730,572.9134615384615,1455,572.9134615384615" stroke="#e377c2" stroke-width="5.211538461538462"/><title>dacls → command-and-control: 1</title></g><g style="mix-blend-mode: multiply;"><path d="M5,1389.6442307692307C730,1389.6442307692307,730,677.1442307692306,1455,677.1442307692306" stroke="#7f7f7f" stroke-width="5.211538461538462"/><title>dtrack → command-and-control: 1</title></g><g style="mix-blend-mode: multiply;"><path d="M5,1254.3557692307695C730,1254.3557692307695,730,671.9326923076922,1455,671.9326923076922" stroke="#cccccc" stroke-width="5.211538461538462"/><title>hotcroissant → command-and-control: 1</title></g><g style="mix-blend-mode: multiply;"><path d="M5,199.3750000000001C730,199.3750000000001,730,578.125,1455,578.125" stroke="#cccccc" stroke-width="5.211538461538462"/><title>keymarble → command-and-control: 1</title></g><g style="mix-blend-mode: multiply;"><path d="M5,786.3749999999998C730,786.3749999999998,730,645.8749999999999,1455,645.8749999999999" stroke="#cccccc" stroke-width="5.211538461538462"/><title>ratankba → command-and-control: 1</title></g><g style="mix-blend-mode: multiply;"><path d="M5,651.2980769230767C730,651.2980769230767,730,619.8173076923076,1455,619.8173076923076" stroke="#cccccc" stroke-width="5.211538461538462"/><title>threatneedle → command-and-control: 1</title></g><g style="mix-blend-mode: multiply;"><path d="M5,947.5096153846151C730,947.5096153846151,730,656.2980769230768,1455,656.2980769230768" stroke="#cccccc" stroke-width="5.211538461538462"/><title>volgmer → command-and-control: 1</title></g><g style="mix-blend-mode: multiply;"><path d="M5,1132.0961538461538C730,1132.0961538461538,730,289.5192307692306,1455,289.5192307692306" stroke="#d62728" stroke-width="10.423076923076923"/><title>bankshot → execution: 2</title></g><g style="mix-blend-mode: multiply;"><path d="M5,246.06730769230785C730,246.06730769230785,730,224.37499999999994,1455,224.37499999999994" stroke="#cccccc" stroke-width="5.211538461538462"/><title>torisma → execution: 1</title></g><g style="mix-blend-mode: multiply;"><path d="M5,931.8749999999998C730,931.8749999999998,730,271.278846153846,1455,271.278846153846" stroke="#cccccc" stroke-width="5.211538461538462"/><title>volgmer → execution: 1</title></g><g style="mix-blend-mode: multiply;"><path d="M5,54.2980769230771C730,54.2980769230771,730,697.7788461538462,1455,697.7788461538462" stroke="#2ca02c" stroke-width="5.211538461538462"/><title>badcall → defense-evasion: 1</title></g><g style="mix-blend-mode: multiply;"><path d="M5,1228.298076923077C730,1228.298076923077,730,198.5288461538461,1455,198.5288461538461" stroke="#cccccc" stroke-width="5.211538461538462"/><title>hotcroissant → collection: 1</title></g><g style="mix-blend-mode: multiply;"><path d="M5,194.16346153846166C730,194.16346153846166,730,156.83653846153842,1455,156.83653846153842" stroke="#cccccc" stroke-width="5.211538461538462"/><title>keymarble → collection: 1</title></g><g style="mix-blend-mode: multiply;"><path d="M5,861.7307692307689C730,861.7307692307689,730,263.46153846153834,1455,263.46153846153834" stroke="#9467bd" stroke-width="10.423076923076923"/><title>blindingcan → execution: 2</title></g><g style="mix-blend-mode: multiply;"><path d="M5,1342.7403846153845C730,1342.7403846153845,730,307.7596153846152,1455,307.7596153846152" stroke="#7f7f7f" stroke-width="5.211538461538462"/><title>dtrack → execution: 1</title></g><g style="mix-blend-mode: multiply;"><path d="M5,625.2403846153844C730,625.2403846153844,730,240.0096153846153,1455,240.0096153846153" stroke="#cccccc" stroke-width="5.211538461538462"/><title>threatneedle → execution: 1</title></g><g style="mix-blend-mode: multiply;"><path d="M5,552.4903846153845C730,552.4903846153845,730,234.79807692307685,1455,234.79807692307685" stroke="#cccccc" stroke-width="5.211538461538462"/><title>typeframe → execution: 1</title></g><g style="mix-blend-mode: multiply;"><path d="M5,487.5576923076923C730,487.5576923076923,730,55.846153846153825,1455,55.846153846153825" stroke="#cccccc" stroke-width="10.423076923076923"/><title>wannacry → lateral-movement: 2</title></g><g style="mix-blend-mode: multiply;"><path d="M5,355.08653846153845C730,355.08653846153845,730,68.66346153846149,1455,68.66346153846149" stroke="#cccccc" stroke-width="5.211538461538462"/><title>proxysvc → impact: 1</title></g><g style="mix-blend-mode: multiply;"><path d="M5,500.58653846153845C730,500.58653846153845,730,79.08653846153842,1455,79.08653846153842" stroke="#cccccc" stroke-width="15.634615384615385"/><title>wannacry → impact: 3</title></g><g style="mix-blend-mode: multiply;"><path d="M5,1217.8749999999998C730,1217.8749999999998,730,89.50961538461534,1455,89.50961538461534" stroke="#cccccc" stroke-width="5.211538461538462"/><title>hotcroissant → impact: 1</title></g><g style="mix-blend-mode: multiply;"><path d="M5,152.68269230769238C730,152.68269230769238,730,323.1826923076922,1455,323.1826923076922" stroke="#e377c2" stroke-width="5.211538461538462"/><title>dacls → persistence: 1</title></g><g style="mix-blend-mode: multiply;"><path d="M5,157.89423076923083C730,157.89423076923083,730,421.9903846153846,1455,421.9903846153846" stroke="#e377c2" stroke-width="5.211538461538462"/><title>dacls → privilege-escalation: 1</title></g><g style="mix-blend-mode: multiply;"><path d="M5,297.9711538461539C730,297.9711538461539,730,328.39423076923066,1455,328.39423076923066" stroke="#ff7f0e" stroke-width="5.211538461538462"/><title>auditcred → persistence: 1</title></g><g style="mix-blend-mode: multiply;"><path d="M5,1139.9134615384614C730,1139.9134615384614,730,380.5096153846152,1455,380.5096153846152" stroke="#d62728" stroke-width="5.211538461538462"/><title>bankshot → persistence: 1</title></g><g style="mix-blend-mode: multiply;"><path d="M5,1145.125C730,1145.125,730,500.16346153846143,1455,500.16346153846143" stroke="#d62728" stroke-width="5.211538461538462"/><title>bankshot → privilege-escalation: 1</title></g><g style="mix-blend-mode: multiply;"><path d="M5,74.93269230769243C730,74.93269230769243,730,317.97115384615375,1455,317.97115384615375" stroke="#17becf" stroke-width="5.211538461538462"/><title>fallchill → persistence: 1</title></g><g style="mix-blend-mode: multiply;"><path d="M5,80.1442307692309C730,80.1442307692309,730,416.77884615384613,1455,416.77884615384613" stroke="#17becf" stroke-width="5.211538461538462"/><title>fallchill → privilege-escalation: 1</title></g><g style="mix-blend-mode: multiply;"><path d="M5,633.057692307692C730,633.057692307692,730,351.8461538461537,1455,351.8461538461537" stroke="#cccccc" stroke-width="10.423076923076923"/><title>threatneedle → persistence: 2</title></g><g style="mix-blend-mode: multiply;"><path d="M5,643.4807692307689C730,643.4807692307689,730,455.8653846153845,1455,455.8653846153845" stroke="#cccccc" stroke-width="10.423076923076923"/><title>threatneedle → privilege-escalation: 2</title></g><g style="mix-blend-mode: multiply;"><path d="M5,557.701923076923C730,557.701923076923,730,344.028846153846,1455,344.028846153846" stroke="#cccccc" stroke-width="5.211538461538462"/><title>typeframe → persistence: 1</title></g><g style="mix-blend-mode: multiply;"><path d="M5,562.9134615384614C730,562.9134615384614,730,448.04807692307685,1455,448.04807692307685" stroke="#cccccc" stroke-width="5.211538461538462"/><title>typeframe → privilege-escalation: 1</title></g><g style="mix-blend-mode: multiply;"><path d="M5,937.0865384615382C730,937.0865384615382,730,359.6634615384614,1455,359.6634615384614" stroke="#cccccc" stroke-width="5.211538461538462"/><title>volgmer → persistence: 1</title></g><g style="mix-blend-mode: multiply;"><path d="M5,942.2980769230767C730,942.2980769230767,730,474.1057692307691,1455,474.1057692307691" stroke="#cccccc" stroke-width="5.211538461538462"/><title>volgmer → privilege-escalation: 1</title></g><g style="mix-blend-mode: multiply;"><path d="M5,516.2211538461539C730,516.2211538461539,730,338.81730769230757,1455,338.81730769230757" stroke="#cccccc" stroke-width="5.211538461538462"/><title>wannacry → persistence: 1</title></g><g style="mix-blend-mode: multiply;"><path d="M5,521.4326923076924C730,521.4326923076924,730,442.8365384615384,1455,442.8365384615384" stroke="#cccccc" stroke-width="5.211538461538462"/><title>wannacry → privilege-escalation: 1</title></g><g style="mix-blend-mode: multiply;"><path d="M5,422.625C730,422.625,730,333.6057692307691,1455,333.6057692307691" stroke="#cccccc" stroke-width="5.211538461538462"/><title>taintedscribe → persistence: 1</title></g><g style="mix-blend-mode: multiply;"><path d="M5,427.83653846153845C730,427.83653846153845,730,437.62499999999994,1455,437.62499999999994" stroke="#cccccc" stroke-width="5.211538461538462"/><title>taintedscribe → privilege-escalation: 1</title></g><g style="mix-blend-mode: multiply;"><path d="M5,417.41346153846155C730,417.41346153846155,730,172.4711538461538,1455,172.4711538461538" stroke="#cccccc" stroke-width="5.211538461538462"/><title>taintedscribe → collection: 1</title></g><g style="mix-blend-mode: multiply;"><path d="M5,1015.0480769230767C730,1015.0480769230767,730,37.81730769230769,1455,37.81730769230769" stroke="#1f77b4" stroke-width="5.211538461538462"/><title>applejeus → initial-access: 1</title></g></g><g><text x="1451" y="27.60576923076923" text-anchor="end"><tspan alignment-baseline="middle" x="1451" style="font-family: Arial, sans-serif; font-size: 10px; fill: black; font-weight: bold;">credential-access</tspan></text><text x="1451" y="40.42307692307691" text-anchor="end"><tspan alignment-baseline="middle" x="1451" style="font-family: Arial, sans-serif; font-size: 10px; fill: black; font-weight: bold;">initial-access</tspan></text><text x="9" y="5.21153846153868" text-anchor="start"><tspan alignment-baseline="middle" x="9" style="font-family: Arial, sans-serif; font-size: 10px; fill: black; font-weight: bold;">hardrain</tspan></text><text x="1451" y="55.84615384615382" text-anchor="end"><tspan alignment-baseline="middle" x="1451" style="font-family: Arial, sans-serif; font-size: 10px; fill: black; font-weight: bold;">lateral-movement</tspan></text><text x="9" y="25.84615384615404" text-anchor="start"><tspan alignment-baseline="middle" x="9" style="font-family: Arial, sans-serif; font-size: 10px; fill: black; font-weight: bold;">eccentricbandwagon</tspan></text><text x="9" y="54.298076923077076" text-anchor="start"><tspan alignment-baseline="middle" x="9" style="font-family: Arial, sans-serif; font-size: 10px; fill: black; font-weight: bold;">badcall</tspan></text><text x="1451" y="79.08653846153845" text-anchor="end"><tspan alignment-baseline="middle" x="1451" style="font-family: Arial, sans-serif; font-size: 10px; fill: black; font-weight: bold;">impact</tspan></text><text x="9" y="87.96153846153857" text-anchor="start"><tspan alignment-baseline="middle" x="9" style="font-family: Arial, sans-serif; font-size: 10px; fill: black; font-weight: bold;">fallchill</tspan></text><text x="9" y="126.83653846153854" text-anchor="start"><tspan alignment-baseline="middle" x="9" style="font-family: Arial, sans-serif; font-size: 10px; fill: black; font-weight: bold;">cryptoistic</tspan></text><text x="9" y="168.3173076923078" text-anchor="start"><tspan alignment-baseline="middle" x="9" style="font-family: Arial, sans-serif; font-size: 10px; fill: black; font-weight: bold;">dacls</tspan></text><text x="1451" y="115.35576923076923" text-anchor="end"><tspan alignment-baseline="middle" x="1451" style="font-family: Arial, sans-serif; font-size: 10px; fill: black; font-weight: bold;">exfiltration</tspan></text><text x="9" y="212.4038461538463" text-anchor="start"><tspan alignment-baseline="middle" x="9" style="font-family: Arial, sans-serif; font-size: 10px; fill: black; font-weight: bold;">keymarble</tspan></text><text x="9" y="264.30769230769243" text-anchor="start"><tspan alignment-baseline="middle" x="9" style="font-family: Arial, sans-serif; font-size: 10px; fill: black; font-weight: bold;">torisma</tspan></text><text x="9" y="321.42307692307696" text-anchor="start"><tspan alignment-baseline="middle" x="9" style="font-family: Arial, sans-serif; font-size: 10px; fill: black; font-weight: bold;">auditcred</tspan></text><text x="9" y="381.1442307692308" text-anchor="start"><tspan alignment-baseline="middle" x="9" style="font-family: Arial, sans-serif; font-size: 10px; fill: black; font-weight: bold;">proxysvc</tspan></text><text x="9" y="446.0769230769231" text-anchor="start"><tspan alignment-baseline="middle" x="9" style="font-family: Arial, sans-serif; font-size: 10px; fill: black; font-weight: bold;">taintedscribe</tspan></text><text x="9" y="513.6153846153845" text-anchor="start"><tspan alignment-baseline="middle" x="9" style="font-family: Arial, sans-serif; font-size: 10px; fill: black; font-weight: bold;">wannacry</tspan></text><text x="9" y="581.153846153846" text-anchor="start"><tspan alignment-baseline="middle" x="9" style="font-family: Arial, sans-serif; font-size: 10px; fill: black; font-weight: bold;">typeframe</tspan></text><text x="9" y="651.2980769230767" text-anchor="start"><tspan alignment-baseline="middle" x="9" style="font-family: Arial, sans-serif; font-size: 10px; fill: black; font-weight: bold;">threatneedle</tspan></text><text x="9" y="726.653846153846" text-anchor="start"><tspan alignment-baseline="middle" x="9" style="font-family: Arial, sans-serif; font-size: 10px; fill: black; font-weight: bold;">hoplight</tspan></text><text x="9" y="804.6153846153843" text-anchor="start"><tspan alignment-baseline="middle" x="9" style="font-family: Arial, sans-serif; font-size: 10px; fill: black; font-weight: bold;">ratankba</tspan></text><text x="1451" y="177.68269230769226" text-anchor="end"><tspan alignment-baseline="middle" x="1451" style="font-family: Arial, sans-serif; font-size: 10px; fill: black; font-weight: bold;">collection</tspan></text><text x="9" y="885.182692307692" text-anchor="start"><tspan alignment-baseline="middle" x="9" style="font-family: Arial, sans-serif; font-size: 10px; fill: black; font-weight: bold;">blindingcan</tspan></text><text x="9" y="968.3557692307689" text-anchor="start"><tspan alignment-baseline="middle" x="9" style="font-family: Arial, sans-serif; font-size: 10px; fill: black; font-weight: bold;">volgmer</tspan></text><text x="1451" y="266.0673076923076" text-anchor="end"><tspan alignment-baseline="middle" x="1451" style="font-family: Arial, sans-serif; font-size: 10px; fill: black; font-weight: bold;">execution</tspan></text><text x="9" y="1059.3461538461536" text-anchor="start"><tspan alignment-baseline="middle" x="9" style="font-family: Arial, sans-serif; font-size: 10px; fill: black; font-weight: bold;">applejeus</tspan></text><text x="1451" y="362.2692307692307" text-anchor="end"><tspan alignment-baseline="middle" x="1451" style="font-family: Arial, sans-serif; font-size: 10px; fill: black; font-weight: bold;">persistence</tspan></text><text x="9" y="1160.7596153846152" text-anchor="start"><tspan alignment-baseline="middle" x="9" style="font-family: Arial, sans-serif; font-size: 10px; fill: black; font-weight: bold;">bankshot</tspan></text><text x="9" y="1264.7788461538457" text-anchor="start"><tspan alignment-baseline="middle" x="9" style="font-family: Arial, sans-serif; font-size: 10px; fill: black; font-weight: bold;">hotcroissant</tspan></text><text x="1451" y="471.5" text-anchor="end"><tspan alignment-baseline="middle" x="1451" style="font-family: Arial, sans-serif; font-size: 10px; fill: black; font-weight: bold;">privilege-escalation</tspan></text><text x="9" y="1389.6442307692305" text-anchor="start"><tspan alignment-baseline="middle" x="9" style="font-family: Arial, sans-serif; font-size: 10px; fill: black; font-weight: bold;">dtrack</tspan></text><text x="1451" y="606.7884615384615" text-anchor="end"><tspan alignment-baseline="middle" x="1451" style="font-family: Arial, sans-serif; font-size: 10px; fill: black; font-weight: bold;">command-and-control</tspan></text><text x="1451" y="843.7019230769231" text-anchor="end"><tspan alignment-baseline="middle" x="1451" style="font-family: Arial, sans-serif; font-size: 10px; fill: black; font-weight: bold;">defense-evasion</tspan></text><text x="1451" y="1221.326923076923" text-anchor="end"><tspan alignment-baseline="middle" x="1451" style="font-family: Arial, sans-serif; font-size: 10px; fill: black; font-weight: bold;">discovery</tspan></text></g><g><text x="1457.5" y="21" text-anchor="middle" style="font-family: Arial, sans-serif; font-size: 12px; fill: rgb(123, 123, 123); font-weight: bold;">TACTIC</text><text x="2.5" y="-3.9999999999997726" text-anchor="middle" style="font-family: Arial, sans-serif; font-size: 12px; fill: rgb(123, 123, 123); font-weight: bold;">MALWARE</text></g></g></svg>